# xmcd
#
# Track frame offsets: 
#        150
#        16727
#        31670
#        43950
#        62915
#        78117
#        90595
#        105820
#        121210
#        136787
#        152292
#        165862
#        181837
#        197630
#        214617
#
# Disc length: 3090 seconds
#
# Revision: 6
# Processed by: cddbd v1.5.2PL0 Copyright (c) Steve Scherf et al.
# Submitted via: ExactAudioCopy v0.99pb5
#
DISCID=a10c100f
DTITLE=Various Artist - Classic Country - TL 626-10 - Golden '80s - CD 2
DYEAR=2000
DGENRE=Country
TTITLE0=Barbara Mandrell feat. George Jones - I was country when count
TTITLE0=ry wasn't cool
TTITLE1=Alabama - Love in the first degree
TTITLE2=John Conlee - Common man
TTITLE3=Ronnie Milsap - Stranger in my house
TTITLE4=Sylvia - Nobody
TTITLE5=Larry Gatlin and The Gatlin Brothers Band - Take me to your lovi
TTITLE5=n' place
TTITLE6=George Jones - Shine on (shine all your sweet love on me)
TTITLE7=Juice Newton - Queen of hearts
TTITLE8=B.J. Thomas - Whatever happened to old fashioned love
TTITLE9=Oak Ridge Boys - Little things
TTITLE10=Ricky Skaggs - Crying my heart out over you
TTITLE11=Jerry Reed - Down on the corner
TTITLE12=Rosanne Cash - Never be you
TTITLE13=Mac Davis - Hooked on music
TTITLE14=Dolly Parton - Save the last dance for me
EXTD=
EXTT0=
EXTT1=
EXTT2=
EXTT3=
EXTT4=
EXTT5=
EXTT6=
EXTT7=
EXTT8=
EXTT9=
EXTT10=
EXTT11=
EXTT12=
EXTT13=
EXTT14=
PLAYORDER=
